<svg width="16" height="16" viewBox="0 0 16 16" fill="none" xmlns="http://www.w3.org/2000/svg">
<rect width="16" height="16" fill="white"/>
<path d="M12.7292 6.13799H14.7511L11.0803 10.1096L14.7872 14.6831H13.0661C12.9256 14.6991 12.6376 14.6373 12.4162 14.4062C12.1947 14.1752 10.615 12.284 9.85273 11.3493L8.42053 12.8898V10.8318L12.7292 6.13799Z" fill="#23305C"/>
<path fill-rule="evenodd" clip-rule="evenodd" d="M5.55603 11.6622L6.30222 11.1928C6.91602 11.4095 6.98101 11.5948 6.61514 11.7103C6.61514 11.7103 6.56699 11.8066 6.66328 11.8066C6.66328 11.8066 6.90398 11.8187 7.08451 11.7585C7.08451 11.7585 7.40947 11.5057 7.08451 11.1688L6.69938 10.9882L7.65017 10.5188L8.66114 9.94115L9.25087 9.4477L9.66007 9.02647L10.0693 8.52098C10.1415 8.43674 10.3003 8.22732 10.31 8.11178C10.3822 7.95533 10.5314 7.61593 10.5507 7.51002C10.5748 7.37763 10.7794 6.81197 10.7673 6.67958C10.8058 6.37148 10.9719 4.14015 13.2586 4.01978C13.8724 3.96763 15.1313 3.86333 15.2565 3.86333H15.6296C15.6296 3.86333 15.7138 3.82723 15.6296 3.80316C14.7511 3.65873 12.5702 3.46376 12.4643 3.50227C12.348 3.49024 12.084 3.45654 11.9588 3.41803C11.8024 3.36988 11.2006 2.84033 10.9719 2.75608C10.7432 2.67184 9.25087 2.02193 8.15566 3.49024C7.85631 3.94524 7.54506 4.94821 7.43522 5.30216L7.43354 5.30757C6.16983 3.50227 2.99492 0.539182 1.03075 0C0.922437 0.18053 1.04038 0.81118 2.37871 1.88954C1.88526 1.52848 0.991208 0.933628 1.04278 1.1915C1.11084 1.53179 1.22603 2.19413 2.05462 2.76606C2.30829 2.89754 2.58364 3.04684 2.77587 3.15325C2.48912 3.033 2.25169 2.90209 2.05462 2.76606C1.71535 2.59021 1.41486 2.44622 1.40384 2.47927C1.38337 2.54068 1.59788 3.53327 2.75778 4.11019C3.008 4.19859 3.27413 4.2982 3.46188 4.36882C3.19532 4.30037 2.96191 4.21172 2.75778 4.11019C2.4252 3.99269 2.12073 3.89499 2.06578 3.91147C1.97112 3.93987 2.39768 4.72033 3.34547 5.09318C3.6183 5.16591 3.95408 5.25911 4.23214 5.2835C3.8982 5.26552 3.60265 5.19436 3.34547 5.09318C2.94517 4.98648 2.68039 4.92383 2.93232 5.18722C3.02505 5.36924 3.34711 5.72826 3.95136 5.90032C4.06939 5.92235 4.18773 5.94788 4.28028 5.96951C4.1625 5.95288 4.05294 5.92924 3.95136 5.90032C3.67544 5.84881 3.40119 5.81638 3.46188 5.8973C3.55184 6.01725 3.57539 6.44437 4.38061 6.54431C4.55927 6.54204 4.78934 6.56902 4.97833 6.55924C4.74174 6.57148 4.54491 6.56471 4.38061 6.54431C4.17244 6.54697 4.03406 6.58935 4.11178 6.77588C4.1841 6.95364 4.41254 7.21463 4.8583 7.1674C4.91905 7.15594 4.98772 7.14453 5.05848 7.12836C5.15573 7.10132 5.26125 7.06096 5.37549 7.00455C5.27879 7.0681 5.16622 7.10374 5.05848 7.12836C4.98738 7.14813 4.92071 7.16078 4.8583 7.1674C4.60865 7.21446 4.49306 7.26207 4.91815 7.64242C5.00128 7.635 5.1155 7.6212 5.2269 7.6014C5.35668 7.56002 5.53404 7.51998 5.60416 7.44985C5.5981 7.51658 5.41657 7.56769 5.2269 7.6014C5.08938 7.64525 5.0053 7.6906 5.15886 7.77481C4.89408 8.21209 4.32842 9.33699 4.184 10.3383C4.00347 11.59 3.59427 12.5047 3.47391 12.8176C3.35356 13.1305 2.30649 15.7301 2.01764 15.9588C1.72879 16.1875 2.9564 15.4052 3.10082 15.0562C3.04064 15.2206 2.93232 15.5424 2.98047 15.5135C3.04064 15.4774 3.85904 15.008 4.00347 14.4424C4.11901 13.9898 4.01951 14.4464 3.95533 14.7312C3.99544 14.7192 4.13826 14.6301 4.3886 14.3702C4.70151 14.0452 5.51992 11.927 5.51992 11.8668C5.51992 11.8187 5.54399 11.7103 5.55603 11.6622ZM10.6349 3.98369L10.5025 3.95962C10.4734 3.91106 10.4302 3.79982 10.4449 3.6828C10.4484 3.65479 10.4553 3.62645 10.4664 3.59856H10.6831L10.7553 3.67679L10.8275 3.75502L10.7432 3.91147L10.6349 3.98369Z" fill="#008080"/>
</svg>
